<svg width="85" id="aeaafe99-568c-4cce-90ea-09f057984f90" data-name="Layer 1" xmlns="http://www.w3.org/2000/svg" viewBox="0 0 139 70"><path d="M9.86,46.39c0,2.3-.59,4-1.75,5A7.12,7.12,0,0,1,3.25,52.9H1V48H2.38a2,2,0,0,0,1.34-.37,1.55,1.55,0,0,0,.4-1.2V25.25H9.86Zm-5.35-24a2.88,2.88,0,0,1-1-2.2,2.91,2.91,0,0,1,1-2.23A3.47,3.47,0,0,1,7,17.1,3.42,3.42,0,0,1,9.4,18a2.91,2.91,0,0,1,1,2.23,2.88,2.88,0,0,1-1,2.2A3.42,3.42,0,0,1,7,23.31,3.47,3.47,0,0,1,4.51,22.42Z"/><path d="M17.55,43.07a8.58,8.58,0,0,1-3.45-3.36,10,10,0,0,1-1.26-5.1,10,10,0,0,1,1.28-5.08,8.64,8.64,0,0,1,3.49-3.37,10.44,10.44,0,0,1,5-1.17,10.44,10.44,0,0,1,5,1.17A8.64,8.64,0,0,1,31,29.53a10,10,0,0,1,1.28,5.08A9.88,9.88,0,0,1,31,39.7a8.74,8.74,0,0,1-3.53,3.37,10.52,10.52,0,0,1-5,1.17A10.39,10.39,0,0,1,17.55,43.07Zm7.75-5a4.78,4.78,0,0,0,1.16-3.46,4.87,4.87,0,0,0-1.12-3.45,3.81,3.81,0,0,0-5.55,0,4.92,4.92,0,0,0-1.11,3.47,5,5,0,0,0,1.09,3.46,3.55,3.55,0,0,0,2.73,1.21A3.75,3.75,0,0,0,25.3,38.07Z"/><path d="M52.9,36h-13A3.93,3.93,0,0,0,41,38.66a3.45,3.45,0,0,0,2.43.92,3,3,0,0,0,3-1.81h6.11a8.45,8.45,0,0,1-1.69,3.32A8.56,8.56,0,0,1,47.8,43.4a9.87,9.87,0,0,1-4.13.84,10.08,10.08,0,0,1-4.9-1.17,8.27,8.27,0,0,1-3.35-3.36,10.29,10.29,0,0,1-1.21-5.1,10.56,10.56,0,0,1,1.19-5.1,8.23,8.23,0,0,1,3.34-3.35A10.12,10.12,0,0,1,43.67,25a10,10,0,0,1,4.83,1.14,8.13,8.13,0,0,1,3.3,3.25A9.81,9.81,0,0,1,53,34.31,16.42,16.42,0,0,1,52.9,36ZM47.13,32.8a3,3,0,0,0-1-2.35,3.71,3.71,0,0,0-2.52-.87,3.63,3.63,0,0,0-2.43.84A3.68,3.68,0,0,0,40,32.8Z"/><path d="M61.75,19.15V44H56V19.15Z"/><path d="M65.86,29.51a8.17,8.17,0,0,1,3-3.35A7.76,7.76,0,0,1,73,25a7.27,7.27,0,0,1,3.37.77,6.1,6.1,0,0,1,2.4,2.08V19.15h5.74V44H78.79V41.29a5.87,5.87,0,0,1-2.29,2.15,7.32,7.32,0,0,1-3.48.8,7.69,7.69,0,0,1-4.19-1.19,8.22,8.22,0,0,1-3-3.39,11.24,11.24,0,0,1-1.09-5.08A11.19,11.19,0,0,1,65.86,29.51ZM77.6,31.23a4,4,0,0,0-5.8,0,4.61,4.61,0,0,0-1.19,3.37A4.74,4.74,0,0,0,71.8,38a4,4,0,0,0,5.8,0,4.64,4.64,0,0,0,1.19-3.39A4.63,4.63,0,0,0,77.6,31.23Z"/><path d="M88.64,29.51a8,8,0,0,1,3-3.35A7.76,7.76,0,0,1,95.8,25a7.14,7.14,0,0,1,3.47.8,6,6,0,0,1,2.3,2.11V25.25h5.74V44h-5.74V41.32a6.21,6.21,0,0,1-2.33,2.12,7.28,7.28,0,0,1-3.47.8,7.64,7.64,0,0,1-4.16-1.19,8.08,8.08,0,0,1-3-3.39,11.24,11.24,0,0,1-1.09-5.08A11.19,11.19,0,0,1,88.64,29.51Zm11.74,1.72a4,4,0,0,0-5.8,0,4.61,4.61,0,0,0-1.2,3.37A4.75,4.75,0,0,0,94.58,38a4,4,0,0,0,5.8,0,4.68,4.68,0,0,0,1.19-3.39A4.68,4.68,0,0,0,100.38,31.23Z"/><path d="M111.52,29.51a8.24,8.24,0,0,1,3.32-3.35A10,10,0,0,1,119.72,25a9.24,9.24,0,0,1,5.88,1.84,8.73,8.73,0,0,1,3.11,5.2H122.6a2.94,2.94,0,0,0-3-2.15,3,3,0,0,0-2.52,1.23,5.68,5.68,0,0,0-.94,3.5,5.71,5.71,0,0,0,.94,3.51,3,3,0,0,0,2.52,1.22,2.93,2.93,0,0,0,3-2.14h6.11a8.8,8.8,0,0,1-3.12,5.16,9.16,9.16,0,0,1-5.87,1.88,10,10,0,0,1-4.88-1.17,8.2,8.2,0,0,1-3.32-3.36,10.39,10.39,0,0,1-1.2-5.1A10.45,10.45,0,0,1,111.52,29.51Z"/><path d="M137.5,46.39q0,3.45-1.75,5a7.12,7.12,0,0,1-4.86,1.53h-2.25V48H130a2,2,0,0,0,1.34-.37,1.55,1.55,0,0,0,.4-1.2V25.25h5.74Zm-5.35-24a2.88,2.88,0,0,1-1-2.2,2.91,2.91,0,0,1,1-2.23,3.82,3.82,0,0,1,4.9,0,2.94,2.94,0,0,1,.95,2.23,2.91,2.91,0,0,1-.95,2.2,3.82,3.82,0,0,1-4.9,0Z"/></svg>